<?xml version="1.0" encoding="utf-8"?>
<!-- Generator: Adobe Illustrator 26.0.2, SVG Export Plug-In . SVG Version: 6.00 Build 0)  -->
<svg version="1.1" id="Layer_1" xmlns="http://www.w3.org/2000/svg" xmlns:xlink="http://www.w3.org/1999/xlink" x="0px" y="0px"
	 viewBox="0 0 500 500" style="enable-background:new 0 0 500 500;" xml:space="preserve">
<style type="text/css">
	.st0{fill:#E79C9A;stroke:#103141;stroke-width:2;stroke-miterlimit:10;}
	.st1{fill:#103141;}
	.st2{fill:#E79C9A;}
</style>
<path class="st0" d="M275.13,244.42c-2.83,0-5.71-0.36-8.47,0.1c-3.09,0.51-6.23,1.4-9.03,2.76c-4.41,2.15-8.55,4.87-12.84,7.29
	c-5.23,2.95-10.48,2.92-15.69-0.06c-3.9-2.23-7.81-4.44-11.65-6.75c-3.96-2.38-8.22-3.5-12.82-3.46c-4.57,0.04-9.14,0.05-13.71,0
	c-5.99-0.07-10.57-2.66-13.6-7.87c-2.33-4-4.65-8.01-6.94-12.04c-2.17-3.81-5.14-6.79-8.95-8.97c-4.03-2.3-8.03-4.63-12.05-6.94
	c-5.23-3.02-7.81-7.61-7.92-13.57c-0.08-4.71-0.05-9.43-0.01-14.14c0.03-4.31-1.02-8.29-3.21-12.01c-2.39-4.06-4.73-8.14-7.05-12.23
	c-2.91-5.15-2.91-10.34,0-15.49c2.25-3.97,4.51-7.93,6.84-11.85c2.37-3.96,3.49-8.21,3.42-12.82c-0.07-4.5-0.05-8.99,0-13.49
	c0.07-6.16,2.73-10.83,8.12-13.91c3.96-2.26,7.9-4.56,11.86-6.82c3.81-2.17,6.78-5.15,8.94-8.97c2.25-3.97,4.57-7.9,6.83-11.86
	c3.08-5.4,7.8-8,13.94-8.09c4.79-0.07,9.57-0.03,14.36-0.01c4.01,0.02,7.73-0.98,11.19-2.99c4.07-2.36,8.15-4.71,12.23-7.06
	c5.35-3.08,10.74-3.08,16.09-0.05c3.97,2.24,7.91,4.54,11.84,6.86c3.77,2.23,7.83,3.32,12.2,3.3c4.64-0.02,9.28-0.02,13.93,0
	c6.09,0.03,10.7,2.67,13.76,7.96c2.36,4.07,4.72,8.14,7.06,12.23c2.07,3.61,4.89,6.43,8.5,8.5c4.15,2.37,8.28,4.78,12.4,7.18
	c5.13,2.99,7.7,7.54,7.82,13.42c0.1,4.79,0.04,9.57,0.02,14.36c-0.02,4.23,1.01,8.15,3.16,11.8c2.39,4.05,4.73,8.14,7.06,12.23
	c2.96,5.22,2.95,10.48-0.01,15.69c-2.32,4.09-4.66,8.18-7.06,12.23c-2.12,3.58-3.16,7.43-3.15,11.58c0.01,4.71,0.03,9.43-0.01,14.14
	c-0.04,6.16-2.66,10.86-8.03,13.96c-4.07,2.36-8.14,4.73-12.22,7.06c-3.55,2.03-6.34,4.79-8.38,8.32c-2.43,4.2-4.83,8.41-7.29,12.6
	c-3.01,5.11-7.54,7.65-13.45,7.76c-2.68,0.05-5.37,0.01-8.05,0.01C275.13,244.34,275.13,244.38,275.13,244.42z M225.17,198.39
	c-0.65-0.56-1.19-1.02-1.72-1.47c-8.97-7.58-17.72-15.44-26.98-22.63c-5.8-4.5-12.32-8.08-18.63-11.87
	c-2.02-1.21-4.3-0.18-5.07,1.76c-0.77,1.91,0.16,3.58,2.2,4.8c5.14,3.08,10.43,6,15.25,9.53c13.06,9.57,25,20.49,36.79,31.56
	c0.55,0.51,1.12,1,1.85,1.64c0.2-0.6,0.3-0.85,0.37-1.12c4.45-16.05,10.25-31.62,16.94-46.86c10.88-24.78,23.78-48.32,42.01-68.61
	c1.62-1.8,1.51-4.06-0.06-5.42c-1.62-1.4-3.77-1.25-5.35,0.7c-5.06,6.24-10.34,12.35-14.97,18.91c-15.78,22.39-27.3,47-36.83,72.58
	C228.94,187.31,227.13,192.79,225.17,198.39z"/>
<path class="st1" d="M225.17,198.39c1.96-5.6,3.77-11.09,5.78-16.49c9.54-25.58,21.05-50.19,36.83-72.58
	c4.62-6.56,9.91-12.66,14.97-18.91c1.58-1.95,3.73-2.1,5.35-0.7c1.57,1.35,1.68,3.61,0.06,5.42
	c-18.23,20.28-31.14,43.83-42.01,68.61c-6.69,15.24-12.49,30.8-16.94,46.86c-0.07,0.26-0.17,0.52-0.37,1.12
	c-0.72-0.64-1.3-1.13-1.85-1.64c-11.79-11.07-23.73-21.98-36.79-31.56c-4.82-3.53-10.11-6.45-15.25-9.53
	c-2.04-1.22-2.96-2.89-2.2-4.8c0.78-1.93,3.05-2.97,5.07-1.76c6.32,3.79,12.84,7.38,18.63,11.87c9.27,7.19,18.02,15.05,26.98,22.63
	C223.98,197.38,224.51,197.83,225.17,198.39z"/>
<g>
	<path class="st2" d="M81.18,352.46h11.23v-39.68c0-0.78,0.04-1.61,0.11-2.49l-10.78,9.57c-0.23,0.21-0.51,0.31-0.83,0.31
		c-0.4,0-0.69-0.13-0.9-0.41l-1-1.38l14.13-12.48h2.55v46.56h10.67v2.53H81.18V352.46z"/>
	<path class="st2" d="M148.13,330.53c0,4.28-0.46,7.99-1.39,11.12c-0.92,3.13-2.17,5.72-3.76,7.77c-1.59,2.05-3.45,3.58-5.58,4.58
		c-2.13,1-4.4,1.5-6.82,1.5c-2.42,0-4.68-0.5-6.8-1.5s-3.97-2.53-5.56-4.58c-1.59-2.05-2.83-4.64-3.75-7.77
		c-0.91-3.13-1.36-6.84-1.36-11.12c0-4.29,0.45-8,1.36-11.13c0.92-3.12,2.16-5.72,3.75-7.77c1.59-2.05,3.44-3.58,5.56-4.58
		c2.12-1,4.39-1.5,6.8-1.5c2.42,0,4.69,0.5,6.82,1.5c2.13,1,3.99,2.53,5.58,4.58c1.59,2.05,2.84,4.65,3.76,7.77
		C147.67,322.53,148.13,326.24,148.13,330.53z M144.67,330.53c0-3.96-0.38-7.35-1.14-10.16c-0.76-2.81-1.77-5.11-3.06-6.89
		c-1.28-1.78-2.78-3.09-4.49-3.92c-1.72-0.83-3.52-1.24-5.41-1.24c-1.89,0-3.68,0.41-5.39,1.24c-1.71,0.83-3.2,2.14-4.49,3.92
		c-1.29,1.78-2.31,4.08-3.07,6.89c-0.76,2.8-1.14,6.2-1.14,10.16c0,3.98,0.38,7.37,1.14,10.17s1.78,5.09,3.07,6.87
		c1.29,1.78,2.79,3.08,4.49,3.9c1.71,0.82,3.5,1.22,5.39,1.22c1.89,0,3.69-0.4,5.41-1.22c1.72-0.82,3.21-2.12,4.49-3.9
		c1.28-1.78,2.29-4.08,3.06-6.87C144.29,337.9,144.67,334.51,144.67,330.53z"/>
	<path class="st2" d="M188.2,330.53c0,4.28-0.46,7.99-1.39,11.12c-0.92,3.13-2.17,5.72-3.76,7.77c-1.59,2.05-3.45,3.58-5.58,4.58
		c-2.13,1-4.4,1.5-6.82,1.5c-2.42,0-4.68-0.5-6.8-1.5c-2.12-1-3.97-2.53-5.56-4.58c-1.59-2.05-2.83-4.64-3.75-7.77
		c-0.91-3.13-1.36-6.84-1.36-11.12c0-4.29,0.45-8,1.36-11.13c0.92-3.12,2.16-5.72,3.75-7.77c1.59-2.05,3.44-3.58,5.56-4.58
		c2.12-1,4.39-1.5,6.8-1.5c2.42,0,4.69,0.5,6.82,1.5c2.13,1,3.99,2.53,5.58,4.58c1.59,2.05,2.84,4.65,3.76,7.77
		C187.74,322.53,188.2,326.24,188.2,330.53z M184.74,330.53c0-3.96-0.38-7.35-1.14-10.16c-0.76-2.81-1.77-5.11-3.06-6.89
		c-1.28-1.78-2.78-3.09-4.49-3.92c-1.72-0.83-3.52-1.24-5.41-1.24s-3.68,0.41-5.39,1.24c-1.71,0.83-3.2,2.14-4.49,3.92
		c-1.29,1.78-2.31,4.08-3.07,6.89c-0.76,2.8-1.14,6.2-1.14,10.16c0,3.98,0.38,7.37,1.14,10.17c0.76,2.8,1.78,5.09,3.07,6.87
		c1.29,1.78,2.79,3.08,4.49,3.9c1.71,0.82,3.5,1.22,5.39,1.22s3.69-0.4,5.41-1.22c1.72-0.82,3.21-2.12,4.49-3.9
		c1.28-1.78,2.29-4.08,3.06-6.87C184.37,337.9,184.74,334.51,184.74,330.53z"/>
	<path class="st2" d="M214.27,317.85c0,2-0.27,3.77-0.83,5.3c-0.55,1.53-1.3,2.8-2.25,3.82c-0.94,1.02-2.03,1.78-3.28,2.3
		c-1.24,0.51-2.55,0.77-3.94,0.77c-1.43,0-2.77-0.26-4.02-0.77c-1.26-0.52-2.34-1.28-3.27-2.3c-0.93-1.01-1.65-2.28-2.18-3.82
		s-0.79-3.3-0.79-5.3c0-2.02,0.26-3.81,0.79-5.35c0.53-1.54,1.25-2.83,2.18-3.86s2-1.79,3.27-2.31c1.25-0.52,2.59-0.78,4.02-0.78
		s2.77,0.26,4.01,0.78c1.24,0.52,2.33,1.29,3.27,2.31c0.93,1.02,1.67,2.31,2.21,3.86C214,314.04,214.27,315.82,214.27,317.85z
		 M211.65,317.85c0-1.77-0.2-3.29-0.61-4.56c-0.4-1.26-0.95-2.3-1.66-3.12c-0.7-0.82-1.52-1.42-2.45-1.8
		c-0.93-0.38-1.92-0.57-2.96-0.57c-1.03,0-2.01,0.19-2.93,0.57c-0.93,0.39-1.73,0.98-2.42,1.8c-0.69,0.82-1.24,1.86-1.65,3.12
		c-0.4,1.27-0.6,2.79-0.6,4.56c0,1.77,0.2,3.29,0.6,4.54c0.4,1.26,0.95,2.29,1.65,3.09c0.68,0.81,1.49,1.4,2.42,1.78
		c0.92,0.38,1.9,0.57,2.93,0.57c1.04,0,2.02-0.19,2.96-0.57c0.93-0.39,1.74-0.97,2.45-1.78c0.7-0.8,1.25-1.83,1.66-3.09
		C211.45,321.13,211.65,319.62,211.65,317.85z M232.83,306.72c0.13-0.18,0.31-0.33,0.5-0.44s0.45-0.17,0.78-0.17h2.31l-35.1,48.25
		c-0.3,0.41-0.7,0.63-1.2,0.63h-2.35L232.83,306.72z M240.66,343.38c0,2-0.27,3.77-0.83,5.3c-0.55,1.53-1.29,2.8-2.23,3.82
		c-0.93,1.01-2.01,1.78-3.26,2.29c-1.24,0.52-2.56,0.78-3.94,0.78c-1.43,0-2.77-0.26-4.03-0.78c-1.25-0.51-2.34-1.28-3.26-2.29
		c-0.93-1.01-1.65-2.28-2.18-3.82c-0.53-1.53-0.79-3.3-0.79-5.3c0-2.02,0.26-3.82,0.79-5.36s1.25-2.82,2.18-3.85
		c0.92-1.03,2-1.8,3.26-2.31c1.26-0.52,2.6-0.78,4.03-0.78c1.43,0,2.77,0.26,4.01,0.78c1.24,0.51,2.33,1.28,3.26,2.31
		c0.93,1.02,1.67,2.3,2.2,3.85S240.66,341.35,240.66,343.38z M238.04,343.38c0-1.77-0.2-3.3-0.61-4.58
		c-0.4-1.28-0.94-2.32-1.64-3.14c-0.69-0.82-1.5-1.42-2.44-1.8c-0.93-0.38-1.91-0.57-2.95-0.57s-2.02,0.19-2.95,0.57
		c-0.93,0.39-1.74,0.98-2.44,1.8c-0.69,0.82-1.24,1.86-1.64,3.14c-0.4,1.28-0.61,2.8-0.61,4.58s0.2,3.29,0.61,4.54
		c0.4,1.25,0.94,2.28,1.64,3.09s1.5,1.39,2.44,1.76c0.93,0.37,1.91,0.55,2.95,0.55s2.02-0.18,2.95-0.55
		c0.93-0.38,1.74-0.95,2.44-1.76s1.24-1.84,1.64-3.09C237.84,346.66,238.04,345.15,238.04,343.38z"/>
	<path class="st2" d="M296.21,306.11v3h-17.17v45.88h-3.53V309.1h-17.27v-3H296.21z"/>
	<path class="st2" d="M316.14,354.98c-0.68,0-1.11-0.32-1.27-0.96l-0.48-4.39c-0.94,0.93-1.89,1.75-2.81,2.5
		c-0.93,0.73-1.91,1.36-2.92,1.86c-1.01,0.51-2.11,0.9-3.29,1.16c-1.18,0.27-2.46,0.4-3.86,0.4c-1.18,0-2.31-0.17-3.42-0.51
		c-1.11-0.35-2.08-0.88-2.94-1.59c-0.85-0.71-1.53-1.63-2.05-2.75s-0.78-2.46-0.78-4.03c0-1.45,0.41-2.8,1.25-4.04
		c0.83-1.24,2.12-2.32,3.88-3.25c1.75-0.93,4.03-1.66,6.8-2.21c2.78-0.56,6.11-0.88,9.99-0.97v-3.59c0-3.18-0.68-5.63-2.05-7.34
		c-1.37-1.72-3.4-2.57-6.09-2.57c-1.67,0-3.07,0.23-4.24,0.69c-1.16,0.45-2.14,0.96-2.95,1.51c-0.81,0.56-1.46,1.06-1.97,1.52
		c-0.51,0.46-0.93,0.69-1.28,0.69c-0.46,0-0.81-0.21-1.03-0.63l-0.59-1c1.79-1.79,3.68-3.15,5.66-4.08
		c1.99-0.92,4.23-1.38,6.74-1.38c1.84,0,3.46,0.29,4.84,0.88s2.53,1.44,3.44,2.53c0.91,1.1,1.59,2.42,2.05,3.97
		c0.46,1.55,0.69,3.29,0.69,5.2v22.38H316.14z M302.33,353.15c1.33,0,2.56-0.14,3.68-0.43c1.11-0.29,2.15-0.68,3.1-1.2
		c0.95-0.52,1.85-1.14,2.68-1.85c0.83-0.71,1.65-1.48,2.45-2.31v-8.94c-3.27,0.09-6.08,0.34-8.44,0.74
		c-2.36,0.4-4.31,0.94-5.84,1.64c-1.53,0.69-2.66,1.51-3.38,2.47c-0.72,0.95-1.09,2.04-1.09,3.27c0,1.15,0.19,2.15,0.57,2.99
		c0.39,0.84,0.89,1.53,1.5,2.07c0.63,0.54,1.35,0.93,2.18,1.2C300.56,353.02,301.43,353.15,302.33,353.15z"/>
	<path class="st2" d="M346.75,324.89c-0.16,0.33-0.41,0.49-0.76,0.49c-0.26,0-0.59-0.14-0.98-0.43c-0.4-0.29-0.93-0.62-1.59-0.97
		c-0.66-0.36-1.46-0.67-2.42-0.96c-0.95-0.29-2.13-0.43-3.51-0.43c-1.24,0-2.38,0.18-3.4,0.54c-1.02,0.36-1.9,0.83-2.62,1.43
		c-0.73,0.6-1.29,1.29-1.7,2.08c-0.4,0.79-0.61,1.63-0.61,2.5c0,1.08,0.28,1.98,0.83,2.69c0.56,0.71,1.28,1.32,2.18,1.83
		c0.9,0.5,1.92,0.93,3.06,1.3c1.15,0.38,2.31,0.74,3.51,1.11c1.2,0.37,2.37,0.78,3.51,1.22c1.14,0.45,2.16,1.01,3.06,1.68
		c0.9,0.67,1.63,1.48,2.18,2.45c0.55,0.97,0.83,2.15,0.83,3.53c0,1.49-0.27,2.89-0.81,4.18c-0.54,1.29-1.33,2.4-2.35,3.34
		c-1.02,0.94-2.28,1.7-3.78,2.25c-1.5,0.56-3.21,0.83-5.12,0.83c-2.42,0-4.5-0.39-6.26-1.16c-1.74-0.77-3.32-1.77-4.69-3.02
		l0.79-1.18c0.12-0.18,0.24-0.33,0.39-0.41c0.13-0.1,0.33-0.14,0.59-0.14c0.3,0,0.67,0.19,1.1,0.56c0.44,0.37,1.01,0.76,1.72,1.19
		c0.7,0.43,1.57,0.83,2.62,1.2c1.05,0.37,2.34,0.55,3.88,0.55c1.46,0,2.74-0.19,3.84-0.6c1.11-0.4,2.02-0.95,2.77-1.64
		c0.73-0.69,1.29-1.5,1.68-2.44c0.38-0.93,0.57-1.92,0.57-2.96c0-1.15-0.28-2.1-0.83-2.86c-0.55-0.76-1.28-1.41-2.18-1.94
		c-0.9-0.53-1.92-0.97-3.06-1.35c-1.14-0.37-2.31-0.73-3.53-1.1c-1.2-0.37-2.38-0.77-3.52-1.21c-1.14-0.43-2.16-0.98-3.06-1.66
		c-0.91-0.67-1.63-1.47-2.18-2.43c-0.56-0.96-0.83-2.15-0.83-3.58c0-1.22,0.26-2.4,0.79-3.53s1.28-2.12,2.26-2.97
		c0.98-0.85,2.17-1.53,3.58-2.04c1.41-0.5,2.98-0.75,4.73-0.75c2.09,0,3.95,0.3,5.58,0.91c1.62,0.61,3.11,1.53,4.47,2.79
		L346.75,324.89z"/>
	<path class="st2" d="M366.88,355.53c-2.32,0-4.13-0.65-5.43-1.93c-1.29-1.29-1.94-3.29-1.94-5.98v-23.5h-4.93
		c-0.25,0-0.46-0.07-0.63-0.2c-0.15-0.13-0.24-0.34-0.24-0.59v-1.28l5.88-0.41l0.82-12.29c0.02-0.21,0.11-0.4,0.25-0.56
		c0.15-0.15,0.35-0.24,0.6-0.24h1.54v13.13h10.81v2.45h-10.81v23.32c0,0.94,0.13,1.75,0.37,2.43c0.24,0.68,0.57,1.24,1,1.68
		c0.42,0.44,0.93,0.76,1.49,0.97c0.58,0.2,1.2,0.31,1.87,0.31c0.83,0,1.54-0.13,2.14-0.37c0.6-0.24,1.12-0.5,1.55-0.79
		c0.44-0.29,0.8-0.56,1.08-0.8c0.27-0.24,0.49-0.36,0.66-0.36c0.18,0,0.37,0.12,0.55,0.35l0.9,1.45c-0.88,0.96-1.99,1.74-3.33,2.33
		C369.74,355.24,368.33,355.53,366.88,355.53z"/>
	<path class="st2" d="M395.11,320.06c1.93,0,3.72,0.33,5.37,1c1.65,0.67,3.07,1.64,4.28,2.91c1.21,1.28,2.16,2.85,2.83,4.72
		c0.68,1.86,1.02,4,1.02,6.42c0,0.51-0.08,0.86-0.22,1.04c-0.15,0.18-0.39,0.27-0.71,0.27h-24.8v0.66c0,2.58,0.3,4.85,0.9,6.81
		c0.6,1.96,1.46,3.6,2.55,4.92c1.11,1.33,2.45,2.32,4.01,2.99c1.56,0.67,3.32,1,5.25,1c1.73,0,3.22-0.19,4.49-0.57
		c1.26-0.38,2.33-0.81,3.19-1.28c0.87-0.46,1.55-0.9,2.05-1.27c0.51-0.39,0.88-0.57,1.11-0.57c0.3,0,0.53,0.12,0.69,0.35l0.9,1.1
		c-0.55,0.69-1.28,1.34-2.2,1.94c-0.91,0.6-1.92,1.11-3.04,1.53c-1.12,0.43-2.31,0.77-3.6,1.02c-1.27,0.25-2.56,0.39-3.85,0.39
		c-2.35,0-4.49-0.41-6.43-1.23c-1.94-0.81-3.6-2-4.98-3.58c-1.38-1.56-2.45-3.48-3.21-5.74c-0.75-2.27-1.14-4.87-1.14-7.8
		c0-2.46,0.36-4.73,1.06-6.81c0.7-2.09,1.72-3.88,3.04-5.39c1.32-1.51,2.95-2.69,4.87-3.55
		C390.49,320.49,392.66,320.06,395.11,320.06z M395.16,322.51c-1.77,0-3.36,0.28-4.76,0.83c-1.41,0.55-2.61,1.35-3.64,2.38
		c-1.02,1.04-1.85,2.28-2.48,3.73c-0.64,1.46-1.05,3.07-1.26,4.88h22.63c0-1.84-0.26-3.5-0.76-4.96c-0.51-1.46-1.21-2.7-2.14-3.71
		c-0.92-1.01-2.02-1.79-3.31-2.33C398.15,322.78,396.72,322.51,395.16,322.51z"/>
	<path class="st2" d="M117.51,388.45c1.54,0,3.01,0.27,4.39,0.8c1.38,0.53,2.58,1.24,3.61,2.14c1.02,0.9,1.84,1.94,2.45,3.12
		c0.61,1.19,0.93,2.43,0.98,3.72c-0.32,0.07-0.61,0.13-0.86,0.2c-0.53,0.12-0.94,0.17-1.24,0.17c-0.19,0-0.37-0.07-0.52-0.21
		c-0.16-0.13-0.28-0.33-0.35-0.58c-0.16-0.61-0.43-1.29-0.83-2.07c-0.4-0.79-0.93-1.52-1.59-2.22c-0.67-0.69-1.5-1.27-2.51-1.76
		c-1-0.48-2.18-0.72-3.54-0.72c-1.39,0-2.64,0.21-3.77,0.64c-1.13,0.43-2.09,1.03-2.9,1.8c-0.81,0.77-1.44,1.69-1.88,2.75
		c-0.45,1.06-0.67,2.22-0.67,3.49c0,1.89,0.48,3.69,1.45,5.42c0.97,1.73,2.47,3.59,4.49,5.56l15.41,15.2
		c1.03-1.66,1.86-3.38,2.47-5.18c0.61-1.8,1.01-3.54,1.2-5.21c0.05-0.3,0.13-0.54,0.27-0.71c0.14-0.17,0.35-0.26,0.63-0.26h1.9
		c-0.05,2.17-0.45,4.39-1.22,6.69c-0.77,2.28-1.87,4.48-3.3,6.57l10.29,10.09h-3.07c-0.41,0-0.76-0.05-1.02-0.13
		c-0.27-0.1-0.57-0.3-0.92-0.63l-7.08-6.94c-1.03,1.2-2.18,2.3-3.42,3.32s-2.58,1.88-4.04,2.6c-1.45,0.73-3,1.3-4.65,1.72
		c-1.65,0.41-3.38,0.62-5.19,0.62c-1.73,0-3.43-0.29-5.12-0.86c-1.68-0.58-3.18-1.43-4.51-2.54c-1.32-1.12-2.39-2.49-3.21-4.11
		c-0.82-1.63-1.22-3.47-1.22-5.54c0-1.66,0.3-3.25,0.9-4.75c0.6-1.51,1.42-2.89,2.46-4.14c1.03-1.25,2.26-2.38,3.69-3.37
		c1.43-0.98,2.97-1.79,4.63-2.42c-1.63-1.84-2.86-3.62-3.67-5.37c-0.82-1.73-1.23-3.6-1.23-5.58c0-1.61,0.3-3.1,0.89-4.47
		c0.59-1.37,1.42-2.56,2.51-3.58c1.08-1.01,2.37-1.8,3.88-2.38C113.95,388.74,115.64,388.45,117.51,388.45z M101.76,425.17
		c0,1.77,0.34,3.32,1.01,4.63c0.68,1.32,1.56,2.42,2.64,3.31c1.09,0.89,2.29,1.54,3.61,1.99c1.32,0.43,2.63,0.66,3.92,0.66
		c1.61,0,3.13-0.18,4.58-0.56c1.44-0.37,2.79-0.88,4.04-1.53s2.41-1.44,3.45-2.33c1.05-0.9,2.01-1.89,2.89-2.97l-15.85-15.58
		c-0.14-0.11-0.27-0.24-0.39-0.38c-1.52,0.65-2.89,1.42-4.13,2.31c-1.23,0.9-2.27,1.9-3.12,2.99c-0.86,1.1-1.51,2.27-1.98,3.55
		C101.98,422.5,101.76,423.82,101.76,425.17z"/>
	<path class="st2" d="M200.82,437.89h-3.56v-23.42h-30.6v23.42h-3.56v-48.87h3.56v22.79h30.6v-22.79h3.56V437.89z"/>
	<path class="st2" d="M221.17,448.94c-0.13,0.32-0.32,0.59-0.53,0.79c-0.22,0.21-0.54,0.32-0.95,0.32h-2.34l6.04-13.45l-14.54-33.09
		h2.73c0.35,0,0.62,0.09,0.81,0.26c0.19,0.17,0.34,0.36,0.43,0.57l11.58,26.74c0.13,0.35,0.26,0.69,0.36,1.05
		c0.11,0.36,0.2,0.72,0.3,1.09c0.12-0.37,0.23-0.73,0.36-1.09c0.13-0.36,0.26-0.7,0.4-1.05l11.43-26.74
		c0.12-0.25,0.28-0.45,0.48-0.61c0.21-0.14,0.43-0.22,0.69-0.22h2.52L221.17,448.94z"/>
	<path class="st2" d="M258.65,402.93c1.49,0,2.88,0.18,4.16,0.55c1.28,0.38,2.42,0.89,3.44,1.56h8.81v1.14
		c0,0.58-0.33,0.89-0.97,0.93l-5.21,0.38c0.65,0.88,1.14,1.86,1.48,2.96c0.35,1.09,0.52,2.26,0.52,3.5c0,1.66-0.3,3.16-0.9,4.51
		s-1.44,2.5-2.51,3.45c-1.07,0.96-2.35,1.71-3.86,2.24c-1.49,0.53-3.15,0.79-4.97,0.79c-1.98,0-3.78-0.3-5.39-0.9
		c-0.96,0.55-1.73,1.2-2.27,1.97c-0.56,0.76-0.84,1.49-0.84,2.21c0,0.99,0.35,1.75,1.04,2.28s1.61,0.92,2.75,1.16
		c1.14,0.24,2.44,0.4,3.9,0.46c1.46,0.08,2.95,0.14,4.45,0.23c1.51,0.08,3,0.22,4.46,0.43c1.46,0.2,2.76,0.57,3.9,1.08
		c1.14,0.52,2.05,1.24,2.75,2.18c0.68,0.93,1.03,2.17,1.03,3.72c0,1.43-0.36,2.8-1.07,4.11c-0.71,1.31-1.74,2.48-3.09,3.49
		c-1.35,1.01-2.98,1.82-4.89,2.44c-1.91,0.61-4.06,0.92-6.43,0.92c-2.41,0-4.53-0.25-6.35-0.74c-1.82-0.5-3.34-1.17-4.58-2
		c-1.23-0.85-2.16-1.81-2.78-2.92c-0.63-1.11-0.93-2.28-0.93-3.53c0-1.81,0.6-3.38,1.79-4.69c1.2-1.31,2.84-2.32,4.94-3.04
		c-1.16-0.4-2.07-0.96-2.75-1.7c-0.68-0.74-1.02-1.76-1.02-3.07c0-0.48,0.1-0.99,0.28-1.52c0.18-0.53,0.45-1.05,0.83-1.57
		c0.37-0.52,0.81-1,1.33-1.46c0.51-0.46,1.12-0.88,1.81-1.24c-1.64-0.94-2.91-2.2-3.82-3.77c-0.92-1.56-1.37-3.39-1.37-5.49
		c0-1.66,0.3-3.16,0.89-4.5c0.59-1.35,1.42-2.51,2.49-3.48c1.07-0.96,2.36-1.72,3.88-2.25S256.81,402.93,258.65,402.93z
		 M271.4,440.2c0-1.08-0.29-1.95-0.85-2.6c-0.57-0.67-1.32-1.18-2.26-1.54s-2.03-0.63-3.27-0.78c-1.22-0.14-2.52-0.25-3.86-0.33
		c-1.35-0.07-2.7-0.13-4.06-0.2c-1.36-0.07-2.63-0.21-3.8-0.41c-0.88,0.35-1.69,0.74-2.44,1.19c-0.75,0.45-1.39,0.96-1.92,1.52
		c-0.53,0.57-0.94,1.19-1.24,1.87c-0.3,0.67-0.45,1.42-0.45,2.23c0,1.01,0.26,1.95,0.78,2.81c0.52,0.87,1.28,1.61,2.28,2.25
		c1,0.64,2.23,1.14,3.67,1.5c1.46,0.37,3.12,0.55,5.01,0.55c1.75,0,3.38-0.19,4.89-0.59c1.51-0.39,2.82-0.94,3.94-1.66
		c1.12-0.71,1.99-1.56,2.62-2.55C271.08,442.46,271.4,441.38,271.4,440.2z M258.65,422.69c1.47,0,2.79-0.21,3.94-0.64
		c1.15-0.42,2.12-1.02,2.9-1.78c0.78-0.76,1.38-1.67,1.77-2.73c0.4-1.06,0.61-2.24,0.61-3.53c0-1.28-0.2-2.47-0.62-3.54
		s-1.02-1.99-1.82-2.75c-0.79-0.76-1.75-1.35-2.9-1.76c-1.14-0.41-2.43-0.62-3.88-0.62c-1.45,0-2.75,0.2-3.9,0.62
		c-1.15,0.41-2.12,1-2.92,1.76c-0.79,0.76-1.4,1.68-1.81,2.75c-0.41,1.07-0.62,2.26-0.62,3.54c0,1.29,0.2,2.47,0.62,3.53
		c0.41,1.06,1.02,1.97,1.81,2.73c0.8,0.76,1.77,1.36,2.92,1.78C255.9,422.48,257.2,422.69,258.65,422.69z"/>
	<path class="st2" d="M287.87,391.67c0,0.41-0.09,0.8-0.26,1.16c-0.17,0.36-0.4,0.67-0.67,0.94c-0.27,0.28-0.6,0.5-0.96,0.66
		c-0.37,0.16-0.76,0.24-1.18,0.24c-0.41,0-0.81-0.08-1.18-0.24c-0.37-0.15-0.69-0.38-0.96-0.66c-0.28-0.27-0.5-0.59-0.66-0.94
		c-0.16-0.36-0.24-0.74-0.24-1.16s0.08-0.82,0.24-1.2c0.15-0.38,0.38-0.71,0.66-0.98c0.27-0.28,0.6-0.5,0.96-0.66
		c0.37-0.16,0.76-0.24,1.18-0.24c0.41,0,0.81,0.08,1.18,0.24c0.37,0.15,0.69,0.38,0.96,0.66c0.28,0.27,0.5,0.61,0.67,0.98
		C287.78,390.85,287.87,391.26,287.87,391.67z M286.41,403.52v34.37h-3.28v-34.37H286.41z"/>
	<path class="st2" d="M311.53,402.97c1.93,0,3.72,0.33,5.37,1c1.65,0.67,3.07,1.64,4.28,2.91c1.21,1.28,2.16,2.85,2.83,4.72
		c0.68,1.86,1.02,4,1.02,6.42c0,0.51-0.08,0.86-0.22,1.04c-0.15,0.18-0.39,0.27-0.71,0.27h-24.8v0.66c0,2.58,0.3,4.85,0.9,6.81
		c0.6,1.96,1.46,3.6,2.55,4.92c1.11,1.33,2.45,2.32,4.01,2.99c1.56,0.67,3.32,1,5.25,1c1.73,0,3.22-0.19,4.49-0.57
		c1.26-0.38,2.33-0.81,3.19-1.28c0.87-0.46,1.55-0.9,2.05-1.27c0.51-0.39,0.88-0.57,1.11-0.57c0.3,0,0.53,0.12,0.69,0.35l0.9,1.1
		c-0.55,0.69-1.28,1.34-2.2,1.94c-0.91,0.6-1.92,1.11-3.04,1.53c-1.12,0.43-2.31,0.77-3.59,1.02c-1.27,0.25-2.56,0.39-3.85,0.39
		c-2.35,0-4.49-0.41-6.43-1.23c-1.94-0.81-3.59-2-4.98-3.58c-1.38-1.56-2.45-3.48-3.21-5.74c-0.75-2.27-1.14-4.87-1.14-7.8
		c0-2.46,0.36-4.73,1.06-6.81c0.7-2.09,1.72-3.88,3.04-5.39c1.32-1.51,2.95-2.69,4.87-3.55
		C306.91,403.39,309.08,402.97,311.53,402.97z M311.58,405.42c-1.77,0-3.36,0.28-4.76,0.83c-1.41,0.55-2.61,1.35-3.64,2.38
		c-1.02,1.04-1.85,2.28-2.48,3.73c-0.64,1.46-1.05,3.07-1.26,4.88h22.63c0-1.84-0.26-3.5-0.76-4.96c-0.51-1.46-1.21-2.7-2.14-3.71
		c-0.92-1.01-2.02-1.79-3.31-2.33C314.57,405.69,313.14,405.42,311.58,405.42z"/>
	<path class="st2" d="M333.88,437.89v-34.37h1.79c0.6,0,0.94,0.29,1.03,0.87l0.32,5.18c1.56-1.98,3.39-3.58,5.47-4.78
		c2.08-1.21,4.4-1.81,6.96-1.81c1.89,0,3.56,0.3,4.99,0.9s2.63,1.46,3.58,2.59s1.66,2.49,2.14,4.07c0.48,1.59,0.72,3.39,0.72,5.4
		v21.97h-3.28v-21.97c0-3.23-0.74-5.75-2.22-7.59c-1.46-1.83-3.73-2.75-6.77-2.75c-2.26,0-4.36,0.58-6.28,1.74
		c-1.94,1.17-3.66,2.76-5.19,4.78v25.77H333.88z"/>
	<path class="st2" d="M384.21,402.97c1.93,0,3.72,0.33,5.37,1c1.65,0.67,3.07,1.64,4.28,2.91c1.21,1.28,2.16,2.85,2.83,4.72
		c0.68,1.86,1.02,4,1.02,6.42c0,0.51-0.08,0.86-0.22,1.04c-0.15,0.18-0.39,0.27-0.71,0.27h-24.8v0.66c0,2.58,0.3,4.85,0.9,6.81
		c0.6,1.96,1.46,3.6,2.55,4.92c1.11,1.33,2.45,2.32,4.01,2.99c1.56,0.67,3.32,1,5.25,1c1.73,0,3.22-0.19,4.49-0.57
		c1.26-0.38,2.33-0.81,3.19-1.28c0.87-0.46,1.55-0.9,2.05-1.27c0.51-0.39,0.88-0.57,1.11-0.57c0.3,0,0.53,0.12,0.69,0.35l0.9,1.1
		c-0.55,0.69-1.28,1.34-2.2,1.94c-0.91,0.6-1.92,1.11-3.04,1.53c-1.12,0.43-2.31,0.77-3.59,1.02c-1.27,0.25-2.56,0.39-3.85,0.39
		c-2.35,0-4.49-0.41-6.43-1.23c-1.94-0.81-3.59-2-4.98-3.58c-1.38-1.56-2.45-3.48-3.21-5.74c-0.75-2.27-1.14-4.87-1.14-7.8
		c0-2.46,0.36-4.73,1.06-6.81c0.7-2.09,1.72-3.88,3.04-5.39c1.32-1.51,2.95-2.69,4.87-3.55
		C379.59,403.39,381.76,402.97,384.21,402.97z M384.26,405.42c-1.77,0-3.36,0.28-4.76,0.83c-1.41,0.55-2.61,1.35-3.64,2.38
		c-1.02,1.04-1.85,2.28-2.48,3.73c-0.64,1.46-1.05,3.07-1.26,4.88h22.63c0-1.84-0.26-3.5-0.76-4.96c-0.51-1.46-1.21-2.7-2.14-3.71
		c-0.92-1.01-2.02-1.79-3.31-2.33C387.25,405.69,385.82,405.42,384.26,405.42z"/>
</g>
</svg>
