<?xml version="1.0" encoding="utf-8"?>
<!-- Generator: Adobe Illustrator 26.0.2, SVG Export Plug-In . SVG Version: 6.00 Build 0)  -->
<svg version="1.1" id="Layer_1" xmlns="http://www.w3.org/2000/svg" xmlns:xlink="http://www.w3.org/1999/xlink" x="0px" y="0px"
	 viewBox="0 0 500 500" style="enable-background:new 0 0 500 500;" xml:space="preserve">
<style type="text/css">
	.st0{fill:#E79C9A;stroke:#103141;stroke-width:2;stroke-miterlimit:10;}
	.st1{fill:#103141;}
	.st2{fill:#E79C9A;}
</style>
<g>
	<path class="st2" d="M68.75,358.18v18.61h-3.33v-46.2h11.91c5.42,0,9.51,1.19,12.26,3.56c2.75,2.37,4.13,5.76,4.13,10.15
		c0,2.02-0.38,3.89-1.13,5.59s-1.83,3.16-3.25,4.39c-1.41,1.23-3.14,2.19-5.16,2.87s-4.31,1.03-6.86,1.03H68.75z M68.75,355.5h8.59
		c2.05,0,3.88-0.28,5.49-0.85s2.98-1.35,4.1-2.35c1.12-1,1.98-2.18,2.58-3.54c0.6-1.36,0.89-2.85,0.89-4.46
		c0-3.55-1.09-6.28-3.28-8.19c-2.18-1.92-5.44-2.87-9.78-2.87h-8.59V355.5z"/>
	<path class="st2" d="M101.63,376.79V344.3h1.63c0.37,0,0.64,0.08,0.8,0.23c0.16,0.15,0.26,0.41,0.28,0.78l0.26,6.86
		c1.05-2.63,2.44-4.7,4.18-6.19c1.74-1.49,3.88-2.23,6.43-2.23c0.98,0,1.88,0.1,2.71,0.31c0.83,0.21,1.61,0.51,2.35,0.9l-0.43,2.15
		c-0.06,0.35-0.28,0.52-0.65,0.52c-0.14,0-0.32-0.05-0.56-0.13c-0.24-0.09-0.54-0.19-0.9-0.29c-0.36-0.11-0.8-0.21-1.32-0.29
		c-0.52-0.09-1.12-0.13-1.8-0.13c-2.46,0-4.48,0.76-6.05,2.29c-1.58,1.53-2.86,3.72-3.84,6.6v21.12H101.63z"/>
	<path class="st2" d="M139.8,343.78c1.83,0,3.52,0.32,5.07,0.95c1.56,0.63,2.91,1.55,4.05,2.76c1.14,1.21,2.04,2.69,2.68,4.46
		c0.64,1.76,0.96,3.79,0.96,6.07c0,0.48-0.07,0.81-0.21,0.98c-0.14,0.18-0.36,0.26-0.67,0.26h-23.44v0.62
		c0,2.44,0.28,4.58,0.84,6.43c0.57,1.85,1.37,3.4,2.42,4.65c1.04,1.25,2.31,2.19,3.78,2.82c1.48,0.63,3.14,0.95,4.96,0.95
		c1.63,0,3.05-0.18,4.24-0.54c1.2-0.36,2.21-0.76,3.02-1.21c0.81-0.44,1.46-0.85,1.94-1.21c0.48-0.36,0.83-0.54,1.05-0.54
		c0.28,0,0.5,0.11,0.65,0.33l0.85,1.04c-0.52,0.65-1.21,1.26-2.07,1.83c-0.86,0.57-1.82,1.05-2.87,1.45
		c-1.06,0.4-2.19,0.73-3.4,0.96c-1.21,0.24-2.42,0.36-3.64,0.36c-2.22,0-4.25-0.39-6.07-1.16c-1.83-0.77-3.4-1.9-4.71-3.38
		c-1.31-1.48-2.32-3.29-3.03-5.44c-0.72-2.14-1.07-4.6-1.07-7.36c0-2.33,0.33-4.48,0.99-6.45c0.67-1.97,1.63-3.67,2.87-5.09
		c1.25-1.42,2.79-2.54,4.61-3.35C135.43,344.18,137.49,343.78,139.8,343.78z M139.84,346.1c-1.67,0-3.17,0.26-4.5,0.78
		c-1.33,0.52-2.47,1.27-3.44,2.25c-0.97,0.98-1.75,2.15-2.34,3.53c-0.6,1.37-1,2.91-1.19,4.6h21.38c0-1.74-0.24-3.3-0.72-4.69
		c-0.48-1.38-1.15-2.55-2.02-3.51c-0.87-0.96-1.91-1.69-3.12-2.2C142.67,346.35,141.32,346.1,139.84,346.1z"/>
	<path class="st2" d="M178.81,348.35c-0.15,0.31-0.39,0.46-0.72,0.46c-0.23,0-0.55-0.14-0.92-0.41c-0.38-0.27-0.88-0.58-1.5-0.91
		c-0.62-0.34-1.39-0.64-2.29-0.92c-0.91-0.27-2.01-0.41-3.32-0.41c-1.17,0-2.25,0.17-3.21,0.5c-0.97,0.34-1.8,0.79-2.48,1.35
		c-0.69,0.56-1.22,1.22-1.6,1.97c-0.38,0.75-0.57,1.54-0.57,2.36c0,1.02,0.27,1.87,0.79,2.54c0.52,0.67,1.21,1.25,2.06,1.73
		c0.84,0.48,1.81,0.89,2.89,1.24c1.08,0.35,2.19,0.69,3.32,1.04c1.14,0.35,2.24,0.74,3.32,1.16c1.07,0.43,2.04,0.95,2.89,1.58
		c0.85,0.63,1.53,1.41,2.06,2.32c0.52,0.91,0.78,2.02,0.78,3.33c0,1.42-0.26,2.73-0.77,3.95c-0.51,1.22-1.25,2.27-2.22,3.17
		c-0.97,0.89-2.16,1.6-3.57,2.12c-1.42,0.52-3.03,0.78-4.84,0.78c-2.29,0-4.26-0.37-5.91-1.09c-1.66-0.73-3.14-1.68-4.44-2.86
		l0.75-1.11c0.11-0.18,0.22-0.31,0.36-0.39c0.13-0.09,0.31-0.13,0.56-0.13c0.28,0,0.63,0.18,1.04,0.52
		c0.41,0.35,0.96,0.72,1.62,1.13c0.67,0.4,1.49,0.78,2.49,1.13c0.99,0.35,2.21,0.52,3.67,0.52c1.37,0,2.58-0.19,3.62-0.57
		c1.05-0.38,1.92-0.9,2.61-1.55c0.7-0.65,1.22-1.42,1.58-2.3c0.36-0.88,0.54-1.81,0.54-2.79c0-1.09-0.27-1.99-0.79-2.71
		s-1.21-1.33-2.06-1.83c-0.85-0.5-1.81-0.92-2.89-1.27c-1.08-0.35-2.18-0.7-3.33-1.05c-1.14-0.35-2.25-0.73-3.33-1.14
		c-1.08-0.41-2.04-0.94-2.89-1.57c-0.85-0.63-1.54-1.4-2.06-2.3c-0.53-0.9-0.78-2.03-0.78-3.38c0-1.15,0.24-2.26,0.75-3.33
		c0.5-1.07,1.21-2,2.14-2.81c0.93-0.81,2.05-1.45,3.38-1.93c1.33-0.48,2.82-0.72,4.47-0.72c1.98,0,3.74,0.29,5.27,0.86
		s2.94,1.45,4.23,2.63L178.81,348.35z"/>
	<path class="st2" d="M201.24,343.78c1.83,0,3.52,0.32,5.08,0.95c1.55,0.63,2.9,1.55,4.05,2.76c1.14,1.21,2.03,2.69,2.68,4.46
		c0.64,1.76,0.96,3.79,0.96,6.07c0,0.48-0.06,0.81-0.21,0.98c-0.14,0.18-0.36,0.26-0.66,0.26h-23.44v0.62
		c0,2.44,0.28,4.58,0.84,6.43c0.57,1.85,1.37,3.4,2.42,4.65c1.04,1.25,2.31,2.19,3.78,2.82c1.48,0.63,3.14,0.95,4.96,0.95
		c1.64,0,3.05-0.18,4.25-0.54s2.21-0.76,3.02-1.21c0.81-0.44,1.46-0.85,1.94-1.21c0.48-0.36,0.82-0.54,1.05-0.54
		c0.28,0,0.5,0.11,0.65,0.33l0.85,1.04c-0.52,0.65-1.21,1.26-2.07,1.83c-0.86,0.57-1.82,1.05-2.87,1.45
		c-1.06,0.4-2.19,0.73-3.4,0.96c-1.21,0.24-2.42,0.36-3.63,0.36c-2.22,0-4.25-0.39-6.08-1.16c-1.83-0.77-3.4-1.9-4.7-3.38
		c-1.31-1.48-2.32-3.29-3.03-5.44c-0.72-2.14-1.07-4.6-1.07-7.36c0-2.33,0.33-4.48,0.99-6.45c0.66-1.97,1.62-3.67,2.87-5.09
		c1.25-1.42,2.78-2.54,4.6-3.35C196.87,344.18,198.93,343.78,201.24,343.78z M201.29,346.1c-1.68,0-3.18,0.26-4.51,0.78
		c-1.32,0.52-2.47,1.27-3.43,2.25c-0.97,0.98-1.75,2.15-2.35,3.53c-0.6,1.37-1,2.91-1.19,4.6h21.38c0-1.74-0.24-3.3-0.71-4.69
		c-0.48-1.38-1.16-2.55-2.02-3.51c-0.87-0.96-1.91-1.69-3.13-2.2C204.11,346.35,202.77,346.1,201.29,346.1z"/>
	<path class="st2" d="M222.37,376.79V344.3h1.63c0.37,0,0.64,0.08,0.8,0.23c0.16,0.15,0.26,0.41,0.28,0.78l0.26,6.86
		c1.05-2.63,2.44-4.7,4.18-6.19c1.74-1.49,3.88-2.23,6.43-2.23c0.98,0,1.89,0.1,2.71,0.31c0.83,0.21,1.61,0.51,2.35,0.9l-0.43,2.15
		c-0.06,0.35-0.29,0.52-0.65,0.52c-0.13,0-0.31-0.05-0.56-0.13c-0.24-0.09-0.54-0.19-0.89-0.29c-0.36-0.11-0.8-0.21-1.33-0.29
		c-0.52-0.09-1.12-0.13-1.8-0.13c-2.46,0-4.47,0.76-6.05,2.29c-1.58,1.53-2.85,3.72-3.84,6.6v21.12H222.37z"/>
	<path class="st2" d="M260.27,376.79h-2.74l-13.71-32.49h2.44c0.31,0,0.55,0.08,0.73,0.25c0.19,0.16,0.32,0.34,0.41,0.54l10.7,25.63
		c0.22,0.5,0.38,0.98,0.49,1.44s0.22,0.91,0.32,1.37c0.11-0.46,0.22-0.92,0.35-1.39c0.12-0.47,0.28-0.94,0.47-1.42l10.78-25.63
		c0.11-0.24,0.26-0.43,0.44-0.57c0.19-0.14,0.41-0.21,0.67-0.21h2.35L260.27,376.79z"/>
	<path class="st2" d="M300.82,376.79c-0.65,0-1.06-0.31-1.21-0.91l-0.46-4.15c-0.89,0.87-1.79,1.66-2.67,2.35
		c-0.88,0.7-1.8,1.29-2.75,1.76c-0.96,0.48-2,0.84-3.1,1.09c-1.11,0.25-2.33,0.38-3.66,0.38c-1.11,0-2.19-0.16-3.23-0.49
		c-1.05-0.33-1.98-0.83-2.78-1.5c-0.8-0.67-1.45-1.54-1.94-2.6c-0.49-1.05-0.73-2.32-0.73-3.8c0-1.37,0.39-2.65,1.17-3.82
		c0.79-1.17,2.01-2.2,3.68-3.07c1.66-0.87,3.8-1.57,6.43-2.09c2.63-0.52,5.77-0.83,9.45-0.91v-3.4c0-3-0.65-5.31-1.94-6.94
		c-1.3-1.62-3.22-2.43-5.77-2.43c-1.57,0-2.9,0.22-4,0.65c-1.09,0.44-2.03,0.92-2.79,1.44c-0.76,0.52-1.38,1-1.87,1.44
		c-0.48,0.44-0.88,0.65-1.2,0.65c-0.44,0-0.77-0.2-0.98-0.59l-0.56-0.95c1.7-1.7,3.49-2.98,5.36-3.85c1.87-0.87,4-1.3,6.37-1.3
		c1.74,0,3.26,0.28,4.57,0.83c1.31,0.56,2.39,1.35,3.25,2.38c0.86,1.03,1.51,2.29,1.94,3.75c0.43,1.47,0.65,3.11,0.65,4.91v21.16
		H300.82z M287.76,375.06c1.26,0,2.42-0.14,3.48-0.41c1.05-0.27,2.03-0.65,2.93-1.14s1.75-1.07,2.53-1.75
		c0.79-0.67,1.56-1.41,2.32-2.19v-8.45c-3.09,0.09-5.76,0.32-7.99,0.7c-2.23,0.38-4.07,0.9-5.52,1.55c-1.45,0.65-2.51,1.43-3.2,2.33
		s-1.03,1.93-1.03,3.08c0,1.09,0.18,2.03,0.54,2.82c0.36,0.79,0.83,1.45,1.42,1.96c0.58,0.51,1.27,0.89,2.05,1.13
		C286.09,374.94,286.91,375.06,287.76,375.06z"/>
	<path class="st2" d="M320.7,377.31c-2.2,0-3.91-0.61-5.12-1.83c-1.22-1.22-1.83-3.1-1.83-5.65v-22.2h-4.67
		c-0.24,0-0.44-0.07-0.59-0.2c-0.15-0.13-0.22-0.32-0.22-0.56v-1.21l5.55-0.39l0.78-11.62c0.02-0.2,0.1-0.37,0.24-0.52
		c0.14-0.15,0.32-0.23,0.56-0.23h1.46v12.41h10.21v2.32h-10.21v22.04c0,0.89,0.11,1.66,0.34,2.3c0.23,0.64,0.54,1.17,0.95,1.58
		c0.4,0.41,0.88,0.72,1.42,0.92c0.54,0.19,1.13,0.29,1.76,0.29c0.78,0,1.46-0.11,2.02-0.34s1.05-0.48,1.47-0.75
		c0.41-0.27,0.75-0.52,1.01-0.75c0.26-0.23,0.47-0.34,0.62-0.34c0.17,0,0.35,0.11,0.52,0.33l0.85,1.37
		c-0.83,0.91-1.88,1.65-3.15,2.2C323.39,377.03,322.07,377.31,320.7,377.31z"/>
	<path class="st2" d="M340.52,333.1c0,0.39-0.09,0.75-0.24,1.09c-0.16,0.34-0.38,0.64-0.64,0.9c-0.27,0.26-0.57,0.47-0.91,0.62
		c-0.35,0.15-0.72,0.23-1.11,0.23c-0.39,0-0.76-0.08-1.11-0.23c-0.35-0.15-0.65-0.36-0.91-0.62c-0.27-0.26-0.47-0.56-0.62-0.9
		c-0.15-0.34-0.23-0.7-0.23-1.09c0-0.39,0.07-0.77,0.23-1.13c0.15-0.36,0.36-0.67,0.62-0.93c0.26-0.26,0.56-0.47,0.91-0.62
		c0.35-0.15,0.72-0.23,1.11-0.23c0.39,0,0.76,0.08,1.11,0.23c0.35,0.15,0.65,0.36,0.91,0.62c0.26,0.26,0.47,0.57,0.64,0.93
		C340.43,332.34,340.52,332.71,340.52,333.1z M339.15,344.3v32.49h-3.1V344.3H339.15z"/>
	<path class="st2" d="M362.62,376.79h-2.74l-13.72-32.49h2.46c0.3,0,0.55,0.08,0.73,0.25c0.18,0.16,0.32,0.34,0.4,0.54l10.71,25.63
		c0.21,0.5,0.38,0.98,0.49,1.44c0.11,0.46,0.21,0.91,0.33,1.37c0.11-0.46,0.22-0.92,0.34-1.39c0.12-0.47,0.28-0.94,0.47-1.42
		l10.77-25.63c0.11-0.24,0.26-0.43,0.45-0.57c0.18-0.14,0.4-0.21,0.67-0.21h2.35L362.62,376.79z"/>
	<path class="st2" d="M394.1,343.78c1.83,0,3.52,0.32,5.07,0.95c1.56,0.63,2.91,1.55,4.05,2.76c1.14,1.21,2.04,2.69,2.68,4.46
		c0.64,1.76,0.96,3.79,0.96,6.07c0,0.48-0.07,0.81-0.21,0.98c-0.14,0.18-0.36,0.26-0.67,0.26h-23.44v0.62
		c0,2.44,0.28,4.58,0.84,6.43c0.57,1.85,1.37,3.4,2.42,4.65c1.04,1.25,2.31,2.19,3.78,2.82c1.48,0.63,3.14,0.95,4.96,0.95
		c1.63,0,3.05-0.18,4.24-0.54c1.2-0.36,2.21-0.76,3.02-1.21c0.81-0.44,1.46-0.85,1.94-1.21s0.83-0.54,1.05-0.54
		c0.28,0,0.5,0.11,0.65,0.33l0.85,1.04c-0.52,0.65-1.21,1.26-2.07,1.83s-1.82,1.05-2.87,1.45c-1.06,0.4-2.19,0.73-3.4,0.96
		c-1.21,0.24-2.42,0.36-3.64,0.36c-2.22,0-4.25-0.39-6.07-1.16c-1.83-0.77-3.4-1.9-4.71-3.38c-1.31-1.48-2.32-3.29-3.03-5.44
		c-0.72-2.14-1.07-4.6-1.07-7.36c0-2.33,0.33-4.48,0.99-6.45c0.67-1.97,1.63-3.67,2.87-5.09c1.25-1.42,2.79-2.54,4.61-3.35
		C389.73,344.18,391.79,343.78,394.1,343.78z M394.14,346.1c-1.67,0-3.17,0.26-4.5,0.78c-1.33,0.52-2.47,1.27-3.44,2.25
		c-0.97,0.98-1.75,2.15-2.34,3.53c-0.6,1.37-1,2.91-1.19,4.6h21.38c0-1.74-0.24-3.3-0.72-4.69c-0.48-1.38-1.15-2.55-2.02-3.51
		c-0.87-0.96-1.91-1.69-3.12-2.2C396.97,346.35,395.62,346.1,394.14,346.1z"/>
	<path class="st2" d="M433.11,348.35c-0.15,0.31-0.39,0.46-0.72,0.46c-0.23,0-0.55-0.14-0.92-0.41c-0.38-0.27-0.88-0.58-1.5-0.91
		s-1.39-0.64-2.29-0.92c-0.91-0.27-2.01-0.41-3.32-0.41c-1.17,0-2.25,0.17-3.21,0.5c-0.97,0.34-1.8,0.79-2.48,1.35
		c-0.69,0.56-1.22,1.22-1.6,1.97c-0.38,0.75-0.57,1.54-0.57,2.36c0,1.02,0.27,1.87,0.79,2.54c0.52,0.67,1.21,1.25,2.06,1.73
		c0.84,0.48,1.81,0.89,2.89,1.24c1.08,0.35,2.19,0.69,3.32,1.04c1.14,0.35,2.24,0.74,3.32,1.16c1.07,0.43,2.04,0.95,2.89,1.58
		c0.85,0.63,1.53,1.41,2.06,2.32c0.52,0.91,0.78,2.02,0.78,3.33c0,1.42-0.26,2.73-0.77,3.95c-0.51,1.22-1.25,2.27-2.22,3.17
		s-2.16,1.6-3.57,2.12c-1.42,0.52-3.03,0.78-4.84,0.78c-2.29,0-4.26-0.37-5.91-1.09c-1.66-0.73-3.14-1.68-4.44-2.86l0.75-1.11
		c0.11-0.18,0.22-0.31,0.36-0.39c0.13-0.09,0.31-0.13,0.56-0.13c0.28,0,0.63,0.18,1.04,0.52c0.41,0.35,0.96,0.72,1.62,1.13
		c0.67,0.4,1.49,0.78,2.49,1.13c0.99,0.35,2.21,0.52,3.67,0.52c1.37,0,2.58-0.19,3.62-0.57c1.05-0.38,1.92-0.9,2.61-1.55
		c0.7-0.65,1.22-1.42,1.58-2.3c0.36-0.88,0.54-1.81,0.54-2.79c0-1.09-0.27-1.99-0.79-2.71s-1.21-1.33-2.06-1.83
		c-0.85-0.5-1.81-0.92-2.89-1.27c-1.08-0.35-2.18-0.7-3.33-1.05c-1.14-0.35-2.25-0.73-3.33-1.14c-1.08-0.41-2.04-0.94-2.89-1.57
		c-0.85-0.63-1.54-1.4-2.06-2.3c-0.53-0.9-0.78-2.03-0.78-3.38c0-1.15,0.24-2.26,0.75-3.33c0.5-1.07,1.21-2,2.14-2.81
		c0.93-0.81,2.05-1.45,3.38-1.93s2.82-0.72,4.47-0.72c1.98,0,3.74,0.29,5.27,0.86s2.94,1.45,4.23,2.63L433.11,348.35z"/>
	<path class="st2" d="M203.76,455.15v-29.09l-4.57-0.29c-0.63-0.05-0.95-0.32-0.95-0.82v-1.28h5.52v-4.11
		c0-1.85,0.24-3.48,0.72-4.88c0.48-1.4,1.15-2.57,2.02-3.51s1.92-1.64,3.15-2.11c1.23-0.47,2.59-0.7,4.07-0.7
		c0.67,0,1.36,0.06,2.04,0.18c0.69,0.12,1.29,0.29,1.81,0.5l-0.1,1.5c-0.02,0.3-0.22,0.46-0.62,0.46c-0.27,0-0.62-0.03-1.06-0.1
		c-0.45-0.07-0.99-0.1-1.65-0.1c-1.07,0-2.05,0.16-2.95,0.47s-1.68,0.82-2.34,1.52c-0.65,0.7-1.16,1.61-1.51,2.73
		c-0.36,1.12-0.54,2.5-0.54,4.13v4.01h10.54v2.32h-10.48v29.16H203.76z"/>
	<path class="st2" d="M223.58,455.15v-32.49h1.63c0.37,0,0.64,0.08,0.8,0.23c0.16,0.15,0.26,0.41,0.28,0.78l0.26,6.86
		c1.05-2.63,2.44-4.7,4.18-6.19c1.74-1.49,3.88-2.23,6.43-2.23c0.98,0,1.89,0.1,2.71,0.31c0.83,0.21,1.61,0.51,2.35,0.9l-0.43,2.15
		c-0.06,0.35-0.29,0.52-0.65,0.52c-0.13,0-0.31-0.05-0.56-0.13c-0.24-0.09-0.54-0.19-0.89-0.29c-0.36-0.11-0.8-0.21-1.33-0.29
		c-0.52-0.09-1.12-0.13-1.8-0.13c-2.46,0-4.47,0.76-6.05,2.29c-1.58,1.53-2.85,3.72-3.84,6.6v21.12H223.58z"/>
	<path class="st2" d="M261.74,422.14c1.83,0,3.52,0.32,5.07,0.95c1.56,0.63,2.91,1.55,4.05,2.76c1.15,1.21,2.04,2.69,2.68,4.46
		c0.64,1.76,0.97,3.79,0.97,6.07c0,0.48-0.07,0.81-0.21,0.98c-0.14,0.18-0.37,0.26-0.67,0.26h-23.45v0.62
		c0,2.44,0.29,4.58,0.85,6.43c0.56,1.85,1.37,3.4,2.42,4.65s2.31,2.19,3.79,2.82c1.48,0.63,3.14,0.95,4.96,0.95
		c1.63,0,3.04-0.18,4.24-0.54c1.2-0.36,2.21-0.76,3.02-1.21c0.82-0.44,1.47-0.85,1.94-1.21s0.83-0.54,1.04-0.54
		c0.29,0,0.5,0.11,0.66,0.33l0.84,1.04c-0.52,0.65-1.21,1.26-2.07,1.83c-0.86,0.57-1.82,1.05-2.87,1.45
		c-1.05,0.4-2.19,0.73-3.39,0.96c-1.21,0.24-2.42,0.36-3.65,0.36c-2.22,0-4.24-0.39-6.07-1.16c-1.83-0.77-3.4-1.9-4.71-3.38
		c-1.31-1.48-2.32-3.29-3.04-5.44c-0.71-2.14-1.07-4.6-1.07-7.36c0-2.33,0.33-4.48,1-6.45c0.66-1.97,1.62-3.67,2.87-5.09
		c1.25-1.42,2.79-2.54,4.61-3.35C257.37,422.54,259.43,422.14,261.74,422.14z M261.79,424.46c-1.67,0-3.17,0.26-4.5,0.78
		c-1.33,0.52-2.48,1.27-3.44,2.25c-0.97,0.98-1.74,2.15-2.34,3.53c-0.6,1.37-0.99,2.91-1.19,4.6h21.38c0-1.74-0.24-3.3-0.72-4.69
		c-0.48-1.38-1.15-2.55-2.02-3.51c-0.87-0.96-1.91-1.69-3.13-2.2C264.61,424.71,263.26,424.46,261.79,424.46z"/>
	<path class="st2" d="M295.11,422.14c1.83,0,3.52,0.32,5.08,0.95c1.55,0.63,2.9,1.55,4.05,2.76c1.14,1.21,2.03,2.69,2.68,4.46
		c0.64,1.76,0.96,3.79,0.96,6.07c0,0.48-0.06,0.81-0.21,0.98c-0.14,0.18-0.36,0.26-0.66,0.26h-23.44v0.62
		c0,2.44,0.28,4.58,0.84,6.43c0.57,1.85,1.37,3.4,2.42,4.65c1.04,1.25,2.31,2.19,3.78,2.82c1.48,0.63,3.14,0.95,4.96,0.95
		c1.64,0,3.05-0.18,4.25-0.54c1.2-0.36,2.21-0.76,3.02-1.21c0.81-0.44,1.46-0.85,1.94-1.21c0.48-0.36,0.82-0.54,1.05-0.54
		c0.28,0,0.5,0.11,0.65,0.33l0.85,1.04c-0.52,0.65-1.21,1.26-2.07,1.83s-1.82,1.05-2.87,1.45c-1.06,0.4-2.19,0.73-3.4,0.96
		c-1.21,0.24-2.42,0.36-3.63,0.36c-2.22,0-4.25-0.39-6.08-1.16c-1.83-0.77-3.4-1.9-4.7-3.38c-1.31-1.48-2.32-3.29-3.03-5.44
		c-0.72-2.14-1.07-4.6-1.07-7.36c0-2.33,0.33-4.48,0.99-6.45c0.66-1.97,1.62-3.67,2.87-5.09c1.25-1.42,2.78-2.54,4.6-3.35
		C290.74,422.54,292.8,422.14,295.11,422.14z M295.16,424.46c-1.68,0-3.18,0.26-4.51,0.78c-1.32,0.52-2.47,1.27-3.43,2.25
		c-0.97,0.98-1.75,2.15-2.35,3.53c-0.6,1.37-1,2.91-1.19,4.6h21.38c0-1.74-0.24-3.3-0.71-4.69c-0.48-1.38-1.16-2.55-2.02-3.51
		c-0.87-0.96-1.91-1.69-3.13-2.2C297.98,424.71,296.64,424.46,295.16,424.46z"/>
</g>
<path class="st1" d="M252.96,64.71c3.57,0.5,7.15,0.92,10.7,1.51c18.68,3.1,35.33,10.73,49.88,22.79
	c19.4,16.08,32.19,36.45,36.71,61.22c7.4,40.48-4.49,74.83-35.26,102.26c-14.32,12.76-31.25,20.86-50.18,23.87
	c-39.78,6.34-73.42-5.54-100.22-35.71c-13.32-15-21.52-32.76-24.29-52.61c-5.26-37.65,5.99-69.81,33.87-95.75
	c15.78-14.68,34.66-23.34,56.03-26.46c2.75-0.4,5.51-0.75,8.26-1.12C243.31,64.71,248.14,64.71,252.96,64.71z M253,176.36
	c22.38,22.39,44.9,44.91,67.42,67.43c39.15-39.73,40.42-106.17-2.65-147.48c-42.88-41.14-107.5-36.58-144.41,0.41
	c21.4,21.39,42.79,42.78,64.12,64.1c0-9.18,0-18.59,0-28.21c-3.67,0-7.21-0.06-10.74,0.02c-1.7,0.04-2.46-0.54-2.36-2.31
	c0.1-1.77-0.03-3.56,0.04-5.33c0.1-2.63,0.29-5.26,0.45-7.89c2.58-0.13,5.16-0.29,7.74-0.38c1.62-0.06,3.25-0.01,4.85-0.01
	c0.16-2.65,0.01-5.04,0.5-7.3c0.87-4.01,4.72-6.34,9-5.85c3.68,0.42,6.63,3.65,6.8,7.53c0.08,1.81,0.01,3.63,0.01,5.62
	c3.92,0,7.53,0.02,11.14-0.01c1.5-0.01,2.19,0.57,2.16,2.15c-0.07,3.24-0.02,6.48-0.02,9.72c0,4.03,0,4.03-4.02,4.03
	c-3.02,0-6.04,0-9.22,0c0,1.05,0,1.8,0,2.55c0,11.75,0.04,23.5-0.04,35.24C253.75,172.38,253.27,174.36,253,176.36z M247.15,180.03
	c0.49,3.28,2.21,5.92,4.29,8.32c3.07,3.55,6.34,6.94,9.34,10.55c4.41,5.31,7.15,11.3,7.09,18.4c-0.09,10.23-7.21,19.24-17.15,21.5
	c-10.05,2.28-20.44-2.56-24.83-11.8c-4.22-8.86-2.77-17.36,2.67-25.15c2.74-3.93,6.26-7.32,9.31-11.05
	c1.91-2.35,3.68-4.83,5.34-7.36c0.64-0.99,0.79-2.3,1.16-3.45c-5.05-1.8-6.73-4.18-6.75-9.21c0-1.21-0.08-2.42,0.02-3.62
	c0.1-1.31-0.35-2.24-1.28-3.17c-21.26-21.21-42.49-42.45-63.73-63.68c-0.47-0.47-0.98-0.91-1.47-1.35
	c-38.81,39.11-41.13,106.17,2.96,147.93c44.19,41.86,108.84,34.81,143.81-0.73c-22.51-22.53-45.03-45.06-67.53-67.57
	C249.48,178.98,248.45,179.45,247.15,180.03z M245.67,185.49c-3,3.46-6.31,7.26-9.6,11.08c-1.73,2.02-3.51,4.02-5.08,6.16
	c-3.8,5.17-5.54,10.99-4.63,17.37c1.55,10.82,11.94,18.24,22.72,16.4c10.76-1.84,17.99-12.54,15.91-23.3
	c-1.09-5.63-3.97-10.21-7.65-14.41C253.39,194.28,249.42,189.76,245.67,185.49z M227.09,119.28c0,3.71,0,7.12,0,10.62
	c12.45,0,24.83,0,37.16,0c0-3.61,0-7.06,0-10.62c-3.77,0-7.38-0.04-10.99,0.02c-1.48,0.02-2.07-0.62-2.05-2.04
	c0.02-1.97,0.06-3.94-0.04-5.9c-0.16-3.1-2.37-5.2-5.39-5.27c-2.96-0.06-5.28,2.03-5.51,5.13c-0.13,1.77-0.07,3.55-0.08,5.33
	c-0.02,2.58-0.15,2.72-2.66,2.73C234.11,119.29,230.7,119.28,227.09,119.28z M240.3,132.7c-0.05,0.69-0.11,1.19-0.11,1.68
	c-0.01,12.18-0.01,24.35,0,36.53c0,0.63,0.05,1.27,0.14,1.89c0.46,3.1,3.55,5.16,6.58,4.41c2.85-0.7,4.29-2.66,4.3-6.09
	c0.02-12.3,0.01-24.6,0-36.91c0-0.48-0.11-0.96-0.18-1.51C247.43,132.7,243.96,132.7,240.3,132.7z"/>
<path class="st2" d="M253,176.36c0.27-2.01,0.76-3.98,0.77-5.96c0.07-11.75,0.04-23.5,0.04-35.24c0-0.75,0-1.5,0-2.55
	c3.18,0,6.2,0,9.22,0c4.02,0,4.02,0,4.02-4.03c0-3.24-0.05-6.48,0.02-9.72c0.03-1.58-0.65-2.16-2.16-2.15
	c-3.61,0.03-7.22,0.01-11.14,0.01c0-2,0.07-3.81-0.01-5.62c-0.17-3.88-3.12-7.11-6.8-7.53c-4.29-0.49-8.13,1.84-9,5.85
	c-0.49,2.26-0.34,4.66-0.5,7.3c-1.6,0-3.23-0.05-4.85,0.01c-2.58,0.09-5.16,0.25-7.74,0.38c-0.15,2.63-0.34,5.25-0.45,7.89
	c-0.07,1.78,0.07,3.56-0.04,5.33c-0.1,1.77,0.66,2.35,2.36,2.31c3.54-0.08,7.08-0.02,10.74-0.02c0,9.62,0,19.03,0,28.21
	c-21.33-21.32-42.72-42.71-64.12-64.1c36.91-36.99,101.53-41.55,144.41-0.41c43.07,41.31,41.79,107.75,2.65,147.48
	C297.9,221.27,275.38,198.75,253,176.36z M313.06,185.22c-0.31,0.33-0.99,0.77-0.94,1.09c0.09,0.56,0.5,1.32,0.98,1.54
	c2.57,1.18,5.2,2.23,7.82,3.32c0.86,0.36,1.91,0.66,2.13-0.53c0.1-0.54-0.63-1.57-1.23-1.86c-2.44-1.16-4.97-2.13-7.47-3.16
	C314.01,185.47,313.64,185.39,313.06,185.22z M311.4,207.57c0.4-0.33,0.97-0.57,1-0.86c0.05-0.55-0.03-1.29-0.37-1.66
	c-1.99-2.11-4.03-4.18-6.16-6.14c-0.44-0.4-1.37-0.25-2.08-0.35c0.1,0.7-0.05,1.64,0.34,2.07c1.91,2.09,3.96,4.06,5.98,6.05
	C310.45,207.02,310.91,207.24,311.4,207.57z M321.01,172.64c1.52,0,3.05,0.1,4.56-0.06c0.49-0.05,0.91-0.78,1.37-1.2
	c-0.46-0.41-0.91-1.16-1.38-1.18c-3.04-0.11-6.09-0.11-9.13,0c-0.47,0.02-0.9,0.78-1.35,1.2c0.46,0.41,0.88,1.13,1.38,1.18
	C317.96,172.74,319.49,172.64,321.01,172.64z"/>
<path class="st2" d="M247.15,180.03c1.3-0.59,2.33-1.06,3.23-1.46c22.5,22.51,45.01,45.04,67.53,67.57
	c-34.96,35.54-99.61,42.58-143.81,0.73c-44.09-41.76-41.77-108.82-2.96-147.93c0.49,0.45,1,0.88,1.47,1.35
	c21.24,21.23,42.47,42.47,63.73,63.68c0.93,0.93,1.39,1.86,1.28,3.17c-0.09,1.2-0.02,2.41-0.02,3.62c0.02,5.02,1.7,7.4,6.75,9.21
	c-0.37,1.15-0.51,2.46-1.16,3.45c-1.65,2.54-3.42,5.02-5.34,7.36c-3.04,3.73-6.56,7.12-9.31,11.05c-5.44,7.79-6.88,16.29-2.67,25.15
	c4.4,9.24,14.78,14.08,24.83,11.8c9.94-2.25,17.06-11.27,17.15-21.5c0.06-7.1-2.68-13.09-7.09-18.4c-3-3.61-6.27-6.99-9.34-10.55
	C249.36,185.95,247.65,183.31,247.15,180.03z M169.54,151.29c-0.21-0.2-0.41-0.4-0.62-0.6c-0.22,0.51-0.66,1.05-0.61,1.54
	c0.06,0.57,0.41,1.38,0.87,1.59c2.69,1.23,5.42,2.38,8.19,3.41c0.52,0.19,1.29-0.29,1.95-0.47c-0.35-0.63-0.54-1.59-1.06-1.85
	c-2.44-1.17-4.97-2.14-7.47-3.17C170.38,151.57,169.95,151.44,169.54,151.29z M179.47,186.9c-0.23-1.57-1.03-1.81-2.08-1.38
	c-2.74,1.11-5.49,2.21-8.17,3.45c-0.47,0.22-0.61,1.14-0.91,1.73c0.63,0.18,1.38,0.69,1.88,0.5c2.77-1.02,5.49-2.19,8.2-3.37
	C178.85,187.64,179.18,187.16,179.47,186.9z M179.95,207.48c0.36-0.13,0.66-0.15,0.82-0.31c2.37-2.35,4.74-4.7,7.04-7.13
	c0.22-0.24,0.08-1.25-0.2-1.43c-0.4-0.26-1.32-0.34-1.61-0.07c-2.34,2.2-4.61,4.49-6.83,6.81c-0.26,0.27-0.26,0.95-0.12,1.36
	C179.15,207.04,179.65,207.24,179.95,207.48z M170.64,170.15c-1.59,0-3.18-0.1-4.75,0.06c-0.5,0.05-0.93,0.76-1.39,1.17
	c0.45,0.42,0.89,1.19,1.36,1.21c3.04,0.11,6.09,0.11,9.13,0.01c0.47-0.02,0.92-0.77,1.38-1.18c-0.45-0.42-0.86-1.15-1.35-1.2
	C173.57,170.05,172.1,170.15,170.64,170.15z"/>
<path class="st2" d="M245.67,185.49c3.75,4.27,7.71,8.78,11.67,13.3c3.68,4.2,6.56,8.78,7.65,14.41
	c2.08,10.76-5.15,21.46-15.91,23.3c-10.77,1.84-21.17-5.57-22.72-16.4c-0.91-6.38,0.84-12.2,4.63-17.37
	c1.57-2.14,3.35-4.14,5.08-6.16C239.36,192.75,242.68,188.95,245.67,185.49z M245.6,228.92c0.21-0.18,1.09-0.55,1.23-1.12
	c0.29-1.15-0.67-1.41-1.64-1.51c-4.93-0.53-8.07-3.64-8.6-8.53c-0.1-0.97-0.28-1.96-1.44-1.67c-0.51,0.13-1.13,1.16-1.12,1.79
	C234.05,223.47,239.48,228.86,245.6,228.92z"/>
<path class="st2" d="M227.09,119.28c3.6,0,7.02,0.01,10.43,0c2.52-0.01,2.64-0.15,2.66-2.73c0.02-1.78-0.05-3.56,0.08-5.33
	c0.23-3.1,2.55-5.19,5.51-5.13c3.02,0.06,5.23,2.16,5.39,5.27c0.1,1.96,0.06,3.93,0.04,5.9c-0.02,1.42,0.57,2.07,2.05,2.04
	c3.61-0.06,7.22-0.02,10.99-0.02c0,3.56,0,7.01,0,10.62c-12.33,0-24.71,0-37.16,0C227.09,126.4,227.09,122.99,227.09,119.28z"/>
<path class="st2" d="M240.3,132.7c3.66,0,7.13,0,10.72,0c0.07,0.55,0.18,1.03,0.18,1.51c0.01,12.3,0.02,24.6,0,36.91
	c-0.01,3.43-1.44,5.39-4.3,6.09c-3.03,0.75-6.12-1.31-6.58-4.41c-0.09-0.62-0.14-1.26-0.14-1.89c-0.01-12.18-0.01-24.35,0-36.53
	C240.19,133.89,240.26,133.39,240.3,132.7z"/>
<path class="st1" d="M313.06,185.22c0.57,0.17,0.94,0.25,1.29,0.4c2.5,1.03,5.04,1.99,7.47,3.16c0.6,0.29,1.33,1.32,1.23,1.86
	c-0.22,1.19-1.27,0.89-2.13,0.53c-2.61-1.09-5.25-2.14-7.82-3.32c-0.48-0.22-0.9-0.98-0.98-1.54
	C312.08,185.98,312.76,185.55,313.06,185.22z"/>
<path class="st1" d="M311.4,207.57c-0.49-0.33-0.95-0.55-1.29-0.88c-2.02-1.99-4.07-3.96-5.98-6.05c-0.4-0.43-0.24-1.37-0.34-2.07
	c0.71,0.1,1.64-0.05,2.08,0.35c2.14,1.96,4.17,4.03,6.16,6.14c0.34,0.36,0.42,1.11,0.37,1.66C312.37,207,311.8,207.24,311.4,207.57z
	"/>
<path class="st1" d="M321.01,172.64c-1.52,0-3.05,0.1-4.56-0.06c-0.49-0.05-0.92-0.77-1.38-1.18c0.45-0.42,0.89-1.18,1.35-1.2
	c3.04-0.11,6.09-0.11,9.13,0c0.47,0.02,0.92,0.77,1.38,1.18c-0.45,0.42-0.87,1.15-1.37,1.2
	C324.07,172.74,322.54,172.64,321.01,172.64z"/>
<path class="st1" d="M169.54,151.29c0.41,0.15,0.84,0.28,1.24,0.45c2.5,1.03,5.03,2.01,7.47,3.17c0.53,0.25,0.72,1.21,1.06,1.85
	c-0.66,0.17-1.43,0.66-1.95,0.47c-2.77-1.03-5.5-2.17-8.19-3.41c-0.45-0.21-0.81-1.02-0.87-1.59c-0.05-0.49,0.39-1.02,0.61-1.54
	C169.13,150.89,169.33,151.09,169.54,151.29z"/>
<path class="st1" d="M179.47,186.9c-0.29,0.26-0.62,0.74-1.07,0.94c-2.71,1.18-5.43,2.34-8.2,3.37c-0.5,0.18-1.25-0.32-1.88-0.5
	c0.29-0.6,0.44-1.51,0.91-1.73c2.68-1.25,5.43-2.35,8.17-3.45C178.44,185.09,179.24,185.33,179.47,186.9z"/>
<path class="st1" d="M179.95,207.48c-0.3-0.24-0.8-0.44-0.91-0.77c-0.14-0.4-0.13-1.09,0.12-1.36c2.22-2.32,4.49-4.6,6.83-6.81
	c0.29-0.27,1.21-0.19,1.61,0.07c0.28,0.18,0.42,1.19,0.2,1.43c-2.29,2.43-4.67,4.77-7.04,7.13
	C180.61,207.33,180.31,207.35,179.95,207.48z"/>
<path class="st1" d="M170.64,170.15c1.46,0,2.93-0.1,4.37,0.06c0.49,0.06,0.9,0.78,1.35,1.2c-0.46,0.41-0.91,1.16-1.38,1.18
	c-3.04,0.11-6.09,0.11-9.13-0.01c-0.47-0.02-0.91-0.79-1.36-1.21c0.46-0.41,0.9-1.13,1.39-1.17
	C167.46,170.05,169.06,170.15,170.64,170.15z"/>
<path class="st1" d="M245.6,228.92c-6.12-0.06-11.54-5.45-11.58-11.05c0-0.62,0.61-1.66,1.12-1.79c1.16-0.29,1.34,0.7,1.44,1.67
	c0.52,4.89,3.67,8,8.6,8.53c0.98,0.11,1.93,0.36,1.64,1.51C246.69,228.36,245.81,228.74,245.6,228.92z"/>
</svg>
